<svg width="30" height="30" viewBox="0 0 30 30" fill="none" xmlns="http://www.w3.org/2000/svg">
<rect width="30" height="30" rx="5.78313" fill="#A0251F"/>
<path d="M15.8316 20.7833V9.21703C15.8316 8.7579 15.4594 8.38571 15.0002 8.38571C14.5411 8.38571 14.1689 8.7579 14.1689 9.21703V20.7833C14.1689 21.2424 14.5411 21.6146 15.0002 21.6146C15.4594 21.6146 15.8316 21.2424 15.8316 20.7833Z" fill="white" stroke="white" stroke-width="0.216867" stroke-linecap="round"/>
<path d="M20.7833 14.1689H9.21703C8.7579 14.1689 8.38571 14.5411 8.38571 15.0002C8.38571 15.4594 8.7579 15.8316 9.21703 15.8316H20.7833C21.2424 15.8316 21.6146 15.4594 21.6146 15.0002C21.6146 14.5411 21.2424 14.1689 20.7833 14.1689Z" fill="white" stroke="white" stroke-width="0.216867" stroke-linecap="round"/>
</svg>
