<svg width="50" height="50" viewBox="0 0 50 50" fill="none" xmlns="http://www.w3.org/2000/svg">
<g clip-path="url(#clip0_821_740)">
<path d="M16.4021 33.5532C15.2303 32.2145 14.0177 30.8229 13.0574 28.7762C12.1175 26.758 11.5966 24.6746 11.6129 22.5099C11.6333 20.3452 12.1826 18.1154 13.3789 15.8123C13.387 15.7961 13.3951 15.7839 13.4033 15.7676C14.9698 13.1146 17.163 11.3405 19.6044 10.3477C21.6512 9.50944 23.8769 9.22461 26.0579 9.42399C28.2307 9.62337 30.3588 10.307 32.2184 11.4056C34.5825 12.8053 36.5275 14.8805 37.5976 17.501C38.1754 18.9211 38.566 20.5039 38.6149 22.2373C38.6637 23.9666 38.3666 25.8302 37.5691 27.7996C36.3484 30.8229 33.496 34.0618 31.6284 37.0363C31.5266 37.0159 31.4208 37.0119 31.3151 37.0282L28.7963 37.4025L32.6334 24.0562C32.7433 23.6777 32.5195 23.283 32.1411 23.1732C31.7626 23.0674 31.368 23.2871 31.2581 23.6655L27.242 37.6385L23.4334 38.2041L19.4091 25.4111C19.698 25.4681 20.0032 25.342 20.1619 25.0734L23.0143 20.2191L24.4669 23.5516C24.6256 23.9137 25.0447 24.0765 25.4028 23.9219C25.5818 23.8446 25.712 23.6981 25.7812 23.5312L27.067 20.2842L28.5725 24.2555C28.7109 24.6258 29.1219 24.8089 29.4921 24.6706C29.8624 24.5322 30.0455 24.1213 29.9072 23.751L27.7628 18.0951C27.7018 17.8957 27.5512 17.7248 27.3437 17.6434C26.9775 17.4969 26.5625 17.68 26.416 18.0462L25.0854 21.4113L23.7589 18.3677C23.7019 18.2334 23.6002 18.1154 23.4659 18.0381C23.1282 17.8387 22.6888 17.9526 22.4934 18.2904L19.0266 24.1904L18.7784 23.4051C18.6604 23.0308 18.2617 22.8192 17.8873 22.9372C17.513 23.0552 17.3014 23.4539 17.4194 23.8283L22.0052 38.4157L19.2464 38.8267C18.5791 36.8532 17.5618 34.8838 16.4021 33.5532ZM7.40555 7.52376C7.0841 7.22266 6.9132 6.81982 6.89692 6.41292C6.88065 6.00602 7.02306 5.59098 7.3201 5.26953C7.62121 4.94808 8.02404 4.77718 8.43094 4.7609C8.83784 4.74463 9.25288 4.88704 9.57433 5.18408L12.1297 7.56445C12.4511 7.86556 12.622 8.26839 12.6383 8.67529C12.6546 9.08626 12.5122 9.49723 12.2151 9.81868C11.914 10.1401 11.5112 10.311 11.1043 10.3273C10.6933 10.3436 10.2823 10.2012 9.96089 9.90413L7.40555 7.52376ZM3.22668 25.0897C2.79536 25.0978 2.40067 24.931 2.1077 24.6584C1.81066 24.3776 1.61942 23.987 1.60314 23.5435C1.58687 23.104 1.7537 22.6971 2.03446 22.4001C2.31522 22.103 2.70584 21.9118 3.14937 21.8996L6.63651 21.7816C7.07596 21.7653 7.48286 21.9321 7.7799 22.2129C8.07694 22.4937 8.26818 22.8843 8.28039 23.3278V23.3522H8.28446L8.28039 23.4092C8.27225 23.8201 8.10949 24.1904 7.84907 24.4712C7.56831 24.7682 7.17769 24.9554 6.73416 24.9717H6.70975V24.9757H6.67313L3.22668 25.0897ZM46.6512 20.1458L46.7041 20.1418C47.1191 20.1173 47.5056 20.2516 47.8068 20.4958C48.1241 20.7521 48.3398 21.1346 48.3886 21.57V21.5863C48.3927 21.5863 48.3927 21.631 48.3927 21.6392C48.4171 22.0542 48.2828 22.4408 48.0387 22.7419C47.7823 23.0592 47.3999 23.2749 46.9645 23.3237L43.4936 23.6899C43.0541 23.7347 42.6391 23.5964 42.3258 23.34C42.0084 23.0837 41.7887 22.7012 41.7439 22.2658C41.6992 21.8304 41.8375 21.4113 42.0939 21.098C42.3502 20.7806 42.7327 20.5609 43.1681 20.5161C44.3278 20.39 45.4915 20.2557 46.6512 20.1458ZM39.7745 6.25423C40.0227 5.88802 40.389 5.66016 40.7877 5.57878C41.1865 5.50146 41.6137 5.57471 41.984 5.81885L41.9881 5.82292C42.3543 6.06706 42.5862 6.43734 42.6635 6.8361C42.7408 7.23486 42.6676 7.66211 42.4235 8.03239L40.4825 10.9336C40.2384 11.2998 39.8681 11.5317 39.4653 11.6131C39.0665 11.6904 38.6393 11.6172 38.269 11.373C37.9028 11.1289 37.6709 10.7546 37.5895 10.3558C37.5122 9.95703 37.5854 9.52979 37.8295 9.1595L39.7745 6.25423ZM24.7029 1.55859C24.7151 1.11507 24.9023 0.720378 25.1993 0.439616C25.4882 0.162923 25.887 -0.00390625 26.3183 0.00016276V-0.00390625C26.3549 -0.00390625 26.3916 0.00016276 26.4282 0.00423177C26.831 0.0367839 27.1931 0.219889 27.4536 0.492513C27.7303 0.781413 27.8971 1.17611 27.893 1.61149H27.8971C27.8971 1.63997 27.8971 1.66846 27.893 1.69287L27.8076 5.09863H27.8116C27.8116 5.13525 27.8076 5.17188 27.8035 5.2085C27.7709 5.6154 27.5878 5.97347 27.3152 6.23389C27.0222 6.51058 26.6276 6.67741 26.1962 6.67334V6.67741C26.1596 6.67741 26.123 6.67334 26.0864 6.66927C25.6795 6.63672 25.3214 6.45361 25.061 6.18099C24.7843 5.88802 24.6175 5.49333 24.6215 5.06201H24.6175C24.6175 5.03353 24.6175 5.00505 24.6215 4.98063L24.7029 1.55859ZM30.664 38.9976L30.4077 40.1979L30.3426 41.0524L20.0358 42.5864C19.9991 41.972 19.9015 41.3088 19.7469 40.6211L30.664 38.9976ZM30.3222 42.9242L30.3304 43.4409L30.3426 43.62C30.371 43.9577 30.3751 44.2995 30.3548 44.6372L30.2001 45.3818L20.6258 46.806L20.4589 46.4235L20.0846 44.8936L20.0765 44.45L30.3222 42.9242ZM29.5695 47.3431C29.073 48.1935 28.3894 48.8568 27.6082 49.3084C26.9124 49.7153 26.1352 49.9473 25.358 49.9961C24.5686 50.0449 23.7711 49.8944 23.0428 49.5444C22.5463 49.3003 22.0825 48.9626 21.6715 48.5231L29.5695 47.3431Z" fill="#1168AB"/>
</g>
<defs>
<clipPath id="clip0_821_740">
<rect width="50" height="50" fill="white"/>
</clipPath>
</defs>
</svg>
