<svg width="13" height="12" viewBox="0 0 13 12" fill="none" xmlns="http://www.w3.org/2000/svg">
<path d="M11.5 6.10195V6.8625C11.5 8.8129 11.5 9.78815 10.9142 10.394C10.3284 11 9.3856 11 7.5 11H5.5C3.61438 11 2.67158 11 2.08579 10.394C1.5 9.78815 1.5 8.8129 1.5 6.8625V6.10195C1.5 4.95775 1.5 4.38564 1.7596 3.91137C2.0192 3.43711 2.49347 3.14275 3.44201 2.55406L4.44201 1.93343C5.44469 1.31114 5.94605 1 6.5 1C7.05395 1 7.5553 1.31114 8.558 1.93343L9.558 2.55406C10.5065 3.14275 10.9808 3.43711 11.2404 3.91137" stroke="#A0251F" stroke-width="0.75" stroke-linecap="round"/>
<path d="M8 9H5" stroke="#A0251F" stroke-width="0.75" stroke-linecap="round"/>
</svg>
