<svg width="62" height="60" viewBox="0 0 62 60" fill="none" xmlns="http://www.w3.org/2000/svg">
<path d="M43.6913 28.7224C43.5579 28.5805 43.4202 28.4428 43.2784 28.3094L36.9999 12.1782L30.7215 28.3094C30.5797 28.4424 30.4422 28.58 30.3092 28.7219L14.1777 35L30.3085 41.2784C30.4419 41.4203 30.5796 41.558 30.7215 41.6914L36.9999 57.8222L43.2776 41.6919C43.4199 41.5585 43.5579 41.4206 43.6914 41.2785L59.8221 35.0005L43.6913 28.7224ZM36.9999 39.0796C34.7473 39.0796 32.9208 37.2529 32.9208 35C32.9208 32.7474 34.7473 30.9212 36.9999 30.9212C39.2526 30.9212 41.0787 32.7474 41.0787 35C41.0787 37.2529 39.2525 39.0796 36.9999 39.0796Z" fill="black"/>
<path d="M20.5468 10.4866L14.8132 8.40156C14.7639 8.38369 14.719 8.35518 14.6819 8.31805C14.6448 8.28092 14.6162 8.23607 14.5984 8.18669L12.5135 2.45328C12.4378 2.24531 12.3 2.06565 12.1188 1.9387C11.9375 1.81175 11.7216 1.74365 11.5003 1.74365C11.279 1.74365 11.063 1.81175 10.8818 1.9387C10.7005 2.06565 10.5627 2.24531 10.4871 2.45328L8.40205 8.18678C8.38418 8.23616 8.35567 8.28101 8.31854 8.31814C8.28141 8.35527 8.23656 8.38378 8.18718 8.40165L2.45377 10.4866C2.2458 10.5622 2.06614 10.7 1.93919 10.8813C1.81224 11.0625 1.74414 11.2785 1.74414 11.4998C1.74414 11.7211 1.81224 11.937 1.93919 12.1183C2.06614 12.2995 2.2458 12.4373 2.45377 12.513L8.18727 14.598C8.23665 14.6158 8.28149 14.6444 8.31863 14.6815C8.35576 14.7186 8.38427 14.7635 8.40214 14.8128L10.4871 20.5463C10.5627 20.7542 10.7005 20.9339 10.8818 21.0608C11.063 21.1878 11.279 21.2559 11.5003 21.2559C11.7216 21.2559 11.9375 21.1878 12.1188 21.0608C12.3 20.9339 12.4378 20.7542 12.5135 20.5463L14.5984 14.8128L14.5985 14.8128C14.6163 14.7634 14.6448 14.7185 14.682 14.6814C14.7191 14.6443 14.764 14.6158 14.8133 14.5979L20.5468 12.513C20.7547 12.4373 20.9344 12.2995 21.0613 12.1183C21.1883 11.937 21.2564 11.7211 21.2564 11.4998C21.2564 11.2785 21.1883 11.0625 21.0613 10.8813C20.9344 10.7 20.7547 10.5622 20.5468 10.4866ZM20.3011 11.8376L14.5678 13.9224C14.4196 13.9761 14.285 14.0616 14.1736 14.173C14.0622 14.2845 13.9766 14.419 13.923 14.5672L11.8381 20.3006C11.8128 20.3699 11.7669 20.4298 11.7064 20.4721C11.646 20.5144 11.574 20.5371 11.5003 20.5371C11.4265 20.5371 11.3545 20.5144 11.2941 20.4721C11.2336 20.4298 11.1877 20.3699 11.1625 20.3006L9.07764 14.5673C9.02399 14.4191 8.93843 14.2845 8.827 14.1731C8.71558 14.0617 8.58102 13.9761 8.43285 13.9225L2.69943 11.8376C2.63011 11.8123 2.57023 11.7664 2.52791 11.706C2.4856 11.6455 2.4629 11.5735 2.4629 11.4998C2.4629 11.426 2.4856 11.354 2.52791 11.2936C2.57023 11.2332 2.63011 11.1872 2.69943 11.162L8.43276 9.07715C8.58093 9.0235 8.71549 8.93794 8.82692 8.82651C8.93834 8.71509 9.02391 8.58053 9.07755 8.43236L11.1625 2.69894C11.1877 2.62962 11.2336 2.56974 11.2941 2.52742C11.3545 2.48511 11.4265 2.46241 11.5003 2.46241C11.574 2.46241 11.646 2.48511 11.7064 2.52742C11.7669 2.56974 11.8128 2.62962 11.838 2.69894L13.9229 8.43227C13.9765 8.58044 14.0621 8.715 14.1735 8.82643C14.2849 8.93785 14.4195 9.02342 14.5677 9.07706L20.3011 11.162C20.3704 11.1872 20.4303 11.2331 20.4726 11.2936C20.5149 11.354 20.5376 11.426 20.5376 11.4998C20.5376 11.5735 20.5149 11.6455 20.4726 11.706C20.4303 11.7664 20.3704 11.8123 20.3011 11.8376Z" fill="black"/>
</svg>
