<svg width="30" height="30" viewBox="0 0 30 30" fill="none" xmlns="http://www.w3.org/2000/svg">
<path d="M15 15.9375C15.9271 15.9375 16.8334 15.6626 17.6042 15.1475C18.3751 14.6324 18.9759 13.9004 19.3307 13.0438C19.6855 12.1873 19.7783 11.2448 19.5974 10.3355C19.4166 9.42623 18.9701 8.591 18.3146 7.93544C17.659 7.27988 16.8238 6.83344 15.9145 6.65257C15.0052 6.4717 14.0627 6.56453 13.2062 6.91932C12.3496 7.2741 11.6176 7.87491 11.1025 8.64577C10.5874 9.41662 10.3125 10.3229 10.3125 11.25C10.3125 12.4932 10.8064 13.6855 11.6854 14.5646C12.5645 15.4436 13.7568 15.9375 15 15.9375ZM15 8.4375C15.5563 8.4375 16.1 8.60245 16.5625 8.91149C17.0251 9.22054 17.3855 9.65979 17.5984 10.1737C17.8113 10.6876 17.867 11.2531 17.7585 11.7987C17.6499 12.3443 17.3821 12.8454 16.9887 13.2387C16.5954 13.6321 16.0943 13.8999 15.5487 14.0085C15.0031 14.117 14.4376 14.0613 13.9237 13.8484C13.4098 13.6355 12.9705 13.2751 12.6615 12.8125C12.3525 12.35 12.1875 11.8063 12.1875 11.25C12.1875 10.5041 12.4838 9.78871 13.0113 9.26126C13.5387 8.73382 14.2541 8.4375 15 8.4375Z" fill="white"/>
<path d="M21.3 19.2844C23.3344 15.7312 24.375 13.0219 24.375 11.25C24.375 8.7636 23.3873 6.37903 21.6291 4.62087C19.871 2.86272 17.4864 1.875 15 1.875C12.5136 1.875 10.129 2.86272 8.37087 4.62087C6.61272 6.37903 5.625 8.7636 5.625 11.25C5.625 13.0219 6.66562 15.7312 8.7 19.2844C5.93437 19.7719 1.875 20.925 1.875 23.4375C1.875 26.6625 8.68125 28.125 15 28.125C21.3187 28.125 28.125 26.6625 28.125 23.4375C28.125 20.925 24.0656 19.7719 21.3 19.2844ZM15 3.75C16.9891 3.75 18.8968 4.54018 20.3033 5.9467C21.7098 7.35322 22.5 9.26088 22.5 11.25C22.5 12.825 21.2531 15.7594 18.9938 19.5187C18.825 19.8 18.6562 20.0812 18.4781 20.3625C18.4781 20.4375 18.3937 20.5031 18.3562 20.5688L17.9344 21.2344C17.9034 21.2927 17.869 21.349 17.8313 21.4031C17.4844 21.9469 17.1375 22.4813 16.8094 22.9688L16.7344 23.0813L16.3125 23.7094L16.2469 23.8031C15.9375 24.2625 15.6469 24.6844 15.3938 25.0406L15.3375 25.1156L15.0375 25.5469C14.5781 24.9094 13.9688 24.0375 13.2844 23.0156C12.9563 22.5094 12.6 21.975 12.2438 21.4125L12.1312 21.2344L11.6625 20.625L11.5031 20.3719L11.1094 19.7156L11.0062 19.5469C8.74687 15.7594 7.5 12.825 7.5 11.25C7.5 9.26088 8.29018 7.35322 9.6967 5.9467C11.1032 4.54018 13.0109 3.75 15 3.75ZM3.75 23.4375C3.75 22.8844 5.5125 21.6469 9.7125 21.0094V21.0562L10.1062 21.6844L10.1719 21.7969L10.6031 22.4812C10.9031 22.9594 11.2125 23.4187 11.5406 23.8687L11.9437 24.4688L12.0187 24.5719L12.3469 25.0594L12.4125 25.1531L12.7312 25.6219L12.7781 25.6781L13.125 26.25C7.26562 25.9219 3.75 24.375 3.75 23.4375ZM16.875 26.25L17.1938 25.8L17.2406 25.725L17.5594 25.2656L17.625 25.1719L17.9437 24.7031L18.0375 24.5719L18.3656 24.075L18.4594 23.9344C18.75 23.5031 19.0406 23.0531 19.3406 22.575L19.4437 22.425L19.7906 21.8719L19.9406 21.6281L20.2406 21.1406L20.2969 21.0562C24.4969 21.6937 26.2594 22.9312 26.2594 23.4844C26.25 24.375 22.7344 25.9219 16.875 26.25Z" fill="white"/>
</svg>
