<svg width="50" height="50" viewBox="0 0 50 50" fill="none" xmlns="http://www.w3.org/2000/svg">
<path d="M23.8602 36.7068L37.9124 22.6546C35.9999 21.8587 33.7347 20.5511 31.5925 18.4088C29.4498 16.2661 28.1421 14.0006 27.3461 12.0879L13.2938 26.1403C12.1972 27.237 11.6488 27.7853 11.1773 28.3897C10.6211 29.103 10.1442 29.8746 9.75505 30.691C9.42519 31.3832 9.17999 32.1189 8.68957 33.59L6.10345 41.3485C5.86212 42.0724 6.05054 42.8706 6.5902 43.4104C7.12985 43.95 7.92808 44.1385 8.6521 43.8972L16.4105 41.3109C17.8817 40.8205 18.6173 40.5754 19.3095 40.2455C20.1259 39.8564 20.8976 39.3795 21.6108 38.8232C22.2152 38.3516 22.7637 37.8033 23.8602 36.7068Z" fill="#1168AB"/>
<path d="M41.8118 18.7548C44.7297 15.837 44.7297 11.1062 41.8118 8.18839C38.894 5.27054 34.1632 5.27054 31.2454 8.18839L29.5601 9.87377C29.5832 9.94346 29.607 10.0141 29.6319 10.0857C30.2496 11.8663 31.4152 14.2004 33.6078 16.3931C35.8004 18.5857 38.1346 19.7513 39.9153 20.369C39.9865 20.3937 40.0568 20.4175 40.1262 20.4405L41.8118 18.7548Z" fill="#1168AB"/>
</svg>
