<svg width="25" height="24" viewBox="0 0 25 24" fill="none" xmlns="http://www.w3.org/2000/svg">
<path d="M16.7869 16.3633L17.3563 15.7972L16.0342 14.4675L15.4649 15.0337L16.7869 16.3633ZM19.2683 15.56L21.6564 16.8583L22.5519 15.211L20.1638 13.9128L19.2683 15.56ZM22.1162 19.4385L20.3404 21.2042L21.6624 22.5338L23.4382 20.7682L22.1162 19.4385ZM19.2584 21.7727C17.4461 21.9415 12.7571 21.791 7.68029 16.743L6.35824 18.0727C11.8983 23.5813 17.1712 23.8503 19.4324 23.6395L19.2584 21.7727ZM7.68029 16.743C2.84106 11.9313 2.03945 7.88421 1.93966 6.12846L0.0676859 6.23485C0.193261 8.44464 1.18585 12.9297 6.35824 18.0727L7.68029 16.743ZM9.39944 9.01766L9.75794 8.66118L8.43594 7.33159L8.07742 7.68806L9.39944 9.01766ZM10.0433 4.11716L8.46712 2.01166L6.96614 3.13534L8.54231 5.24085L10.0433 4.11716ZM3.16585 1.55339L1.20385 3.50425L2.5259 4.83385L4.4879 2.88299L3.16585 1.55339ZM8.73844 8.35286C8.07742 7.68806 8.07652 7.68895 8.07562 7.68985C8.07532 7.69015 8.07442 7.69106 8.07381 7.69168C8.07259 7.69291 8.07134 7.69416 8.07007 7.69545C8.06754 7.69804 8.06491 7.70073 8.06221 7.70353C8.0568 7.70914 8.05107 7.71522 8.04505 7.72177C8.03299 7.73485 8.01975 7.74983 8.00557 7.76674C7.97724 7.80055 7.94512 7.84219 7.91137 7.892C7.84371 7.99186 7.76999 8.1239 7.70742 8.28995C7.57976 8.62876 7.51132 9.0754 7.59712 9.62846C7.76492 10.7101 8.50981 12.1388 10.4179 14.036L11.7399 12.7064C9.95431 10.9309 9.52894 9.85039 9.44994 9.34102C9.41231 9.0986 9.45131 8.97929 9.46206 8.95104C9.46856 8.93356 9.47169 8.93178 9.46369 8.94371C9.45969 8.94955 9.45306 8.95869 9.44269 8.971C9.43756 8.97716 9.43144 8.98414 9.42431 8.99191C9.42069 8.9958 9.41694 8.99989 9.41269 9.00418C9.41069 9.00633 9.40856 9.00851 9.40631 9.01076C9.40519 9.01189 9.40406 9.01303 9.40294 9.01418C9.40244 9.01475 9.40156 9.01563 9.40119 9.01591C9.40031 9.01679 9.39944 9.01767 8.73844 8.35286ZM10.4179 14.036C12.3267 15.9339 13.7621 16.6725 14.8454 16.8388C15.3991 16.9237 15.8454 16.8559 16.1841 16.7298C16.3501 16.6679 16.4823 16.595 16.5823 16.528C16.6323 16.4945 16.6741 16.4627 16.7079 16.4345C16.7249 16.4205 16.7399 16.4074 16.7531 16.3954C16.7597 16.3894 16.7658 16.3838 16.7714 16.3784C16.7743 16.3757 16.7769 16.373 16.7796 16.3705C16.7808 16.3693 16.7821 16.368 16.7833 16.3668C16.7839 16.3662 16.7849 16.3653 16.7852 16.365C16.7861 16.3642 16.7869 16.3633 16.1259 15.6984C15.4649 15.0337 15.4658 15.0328 15.4667 15.0319C15.4669 15.0317 15.4678 15.0308 15.4684 15.0302C15.4696 15.029 15.4707 15.0279 15.4718 15.0268C15.4742 15.0247 15.4763 15.0225 15.4784 15.0204C15.4828 15.0163 15.4869 15.0125 15.4908 15.0089C15.4986 15.0019 15.5056 14.9958 15.5118 14.9908C15.5241 14.9805 15.5332 14.974 15.5388 14.9702C15.5504 14.9624 15.5481 14.9659 15.5296 14.9728C15.4989 14.9842 15.3763 15.0233 15.1298 14.9854C14.6132 14.9063 13.5251 14.4813 11.7399 12.7064L10.4179 14.036ZM8.46712 2.01166C7.19299 0.309677 4.68751 0.0403647 3.16585 1.55339L4.4879 2.88299C5.1525 2.22215 6.33285 2.28941 6.96614 3.13534L8.46712 2.01166ZM1.93966 6.12846C1.91507 5.69583 2.1135 5.2439 2.5259 4.83385L1.20385 3.50425C0.532198 4.17209 0.00417343 5.11746 0.0676859 6.23485L1.93966 6.12846ZM20.3404 21.2042C19.9969 21.5458 19.6287 21.7382 19.2584 21.7727L19.4324 23.6395C20.3507 23.5539 21.1031 23.09 21.6624 22.5338L20.3404 21.2042ZM9.75794 8.66118C10.9886 7.43753 11.0801 5.50203 10.0433 4.11716L8.54231 5.24085C9.04669 5.91458 8.97169 6.79888 8.43594 7.33159L9.75794 8.66118ZM21.6564 16.8583C22.6787 17.414 22.8379 18.7208 22.1162 19.4385L23.4382 20.7682C25.1136 19.1023 24.5969 16.3227 22.5519 15.211L21.6564 16.8583ZM17.3563 15.7972C17.8363 15.3199 18.6089 15.2017 19.2683 15.56L20.1638 13.9128C18.8093 13.1764 17.1283 13.3798 16.0342 14.4675L17.3563 15.7972Z" fill="white"/>
</svg>
