<svg width="61" height="60" viewBox="0 0 61 60" fill="none" xmlns="http://www.w3.org/2000/svg">
<rect x="0.818359" y="29.6973" width="42" height="42" rx="21" transform="rotate(-45 0.818359 29.6973)" fill="#1A75BB"/>
<path d="M37.9828 22.948C37.9828 22.5526 37.6623 22.232 37.2669 22.232L30.8237 22.232C30.4283 22.232 30.1078 22.5526 30.1078 22.948C30.1078 23.3433 30.4283 23.6639 30.8237 23.6639L36.551 23.6639L36.551 29.3911C36.551 29.7865 36.8715 30.107 37.2669 30.107C37.6623 30.107 37.9828 29.7865 37.9828 29.3911L37.9828 22.948ZM23.7676 36.4473L24.2738 36.9535L37.7731 23.4542L37.2669 22.948L36.7607 22.4417L23.2614 35.941L23.7676 36.4473Z" fill="white"/>
</svg>
