<svg width="50" height="50" viewBox="0 0 50 50" fill="none" xmlns="http://www.w3.org/2000/svg">
<path fill-rule="evenodd" clip-rule="evenodd" d="M29.4118 6.34119C28.7102 6.05273 27.8206 6.05273 26.0415 6.05273C24.2623 6.05273 23.3727 6.05273 22.6711 6.34119C21.7355 6.7258 20.9922 7.46352 20.6047 8.39203C20.4277 8.8159 20.3585 9.30884 20.3314 10.0279C20.2916 11.0845 19.7456 12.0626 18.8229 12.5913C17.9001 13.12 16.7737 13.1003 15.8317 12.6062C15.1907 12.2699 14.7259 12.083 14.2676 12.0231C13.2636 11.8919 12.2482 12.1619 11.4447 12.7737C10.8422 13.2326 10.3974 13.9972 9.50784 15.5263C8.61828 17.0554 8.17351 17.8199 8.07437 18.5673C7.94218 19.5637 8.21426 20.5714 8.83075 21.3688C9.11214 21.7328 9.50759 22.0386 10.1214 22.4214C11.0236 22.9841 11.6042 23.9426 11.6042 25.0001C11.6041 26.0575 11.0235 27.0159 10.1214 27.5784C9.50749 27.9614 9.11197 28.2674 8.83056 28.6313C8.21407 29.4286 7.94201 30.4363 8.07418 31.4327C8.17332 32.18 8.61811 32.9447 9.50765 34.4738C10.3972 36.0028 10.842 36.7675 11.4446 37.2262C12.248 37.8381 13.2634 38.1081 14.2674 37.9769C14.7257 37.9171 15.1904 37.7301 15.8314 37.3939C16.7734 36.8998 17.9 36.8801 18.8228 37.4087C19.7455 37.9375 20.2916 38.9156 20.3314 39.9725C20.3585 40.6913 20.4277 41.1843 20.6047 41.6082C20.9922 42.5366 21.7355 43.2744 22.6711 43.6591C23.3727 43.9474 24.2623 43.9474 26.0415 43.9474C27.8206 43.9474 28.7102 43.9474 29.4118 43.6591C30.3475 43.2744 31.0908 42.5366 31.4782 41.6082C31.6552 41.1843 31.7246 40.6913 31.7516 39.9723C31.7914 38.9156 32.3373 37.9375 33.26 37.4087C34.1828 36.8799 35.3094 36.8998 36.2514 37.3939C36.8924 37.7301 37.357 37.9169 37.8154 37.9767C38.8194 38.1081 39.8348 37.8381 40.6381 37.2262C41.2409 36.7673 41.6856 36.0028 42.5751 34.4736C43.4647 32.9445 43.9094 32.18 44.0087 31.4327C44.1408 30.4363 43.8687 29.4285 43.2523 28.6312C42.9707 28.2672 42.5753 27.9612 41.9614 27.5784C41.0593 27.0159 40.4788 26.0573 40.4788 24.9999C40.4788 23.9424 41.0593 22.9843 41.9614 22.4217C42.5755 22.0388 42.9709 21.733 43.2525 21.3688C43.8689 20.5716 44.1409 19.5638 44.0089 18.5674C43.9096 17.8201 43.4649 17.0555 42.5753 15.5264C41.6857 13.9973 41.241 13.2327 40.6383 12.7739C39.835 12.162 38.8196 11.892 37.8156 12.0232C37.3572 12.0831 36.8924 12.27 36.2516 12.6062C35.3096 13.1004 34.183 13.1201 33.2602 12.5914C32.3375 12.0627 31.7914 11.0845 31.7515 10.0278C31.7244 9.3088 31.6552 8.81588 31.4782 8.39203C31.0908 7.46352 30.3475 6.7258 29.4118 6.34119ZM26.0415 30.6843C29.2047 30.6843 31.7689 28.1395 31.7689 25.0001C31.7689 21.8607 29.2047 19.3159 26.0415 19.3159C22.8782 19.3159 20.314 21.8607 20.314 25.0001C20.314 28.1395 22.8782 30.6843 26.0415 30.6843Z" fill="#1168AB"/>
</svg>
