<svg width="50" height="50" viewBox="0 0 50 50" fill="none" xmlns="http://www.w3.org/2000/svg">
<path d="M45.8332 24.9993C45.8332 36.5052 36.5057 45.8327 24.9998 45.8327C13.4939 45.8327 4.1665 36.5052 4.1665 24.9993C4.1665 13.4934 13.4939 4.16602 24.9998 4.16602C36.5057 4.16602 45.8332 13.4934 45.8332 24.9993Z" fill="#1168AB"/>
<path d="M21.6933 17.7038L22.0347 17.0914C23.3541 14.7245 24.0139 13.541 25.0002 13.541C25.9864 13.541 26.6462 14.7245 27.9656 17.0914L28.307 17.7038C28.6818 18.3764 28.8693 18.7127 29.1616 18.9346C29.4539 19.1565 29.8181 19.2388 30.5462 19.4036L31.2089 19.5535C33.7712 20.1333 35.0522 20.4231 35.357 21.4033C35.6618 22.3833 34.7885 23.4046 33.0418 25.4473L32.5897 25.9756C32.0935 26.556 31.8454 26.8462 31.7337 27.2054C31.622 27.5643 31.6595 27.9516 31.7345 28.726L31.8029 29.431C32.067 32.1562 32.1989 33.5189 31.401 34.1246C30.6031 34.7304 29.4037 34.1781 27.0047 33.0735L26.3841 32.7877C25.7022 32.4739 25.3614 32.3168 25.0002 32.3168C24.6389 32.3168 24.2981 32.4739 23.6162 32.7877L22.9956 33.0735C20.5967 34.1781 19.3972 34.7304 18.5993 34.1246C17.8013 33.5189 17.9334 32.1562 18.1975 29.431L18.2658 28.726C18.3408 27.9516 18.3783 27.5643 18.2667 27.2054C18.155 26.8462 17.9069 26.556 17.4105 25.9756L16.9586 25.4473C15.2119 23.4046 14.3385 22.3833 14.6433 21.4033C14.9481 20.4231 16.2292 20.1332 18.7914 19.5535L19.4542 19.4036C20.1823 19.2388 20.5464 19.1565 20.8387 18.9346C21.131 18.7127 21.3185 18.3764 21.6933 17.7038Z" fill="white"/>
</svg>
