<svg width="42" height="42" viewBox="0 0 42 42" fill="none" xmlns="http://www.w3.org/2000/svg">
<circle cx="21" cy="21" r="21" fill="black"/>
<g clip-path="url(#clip0_708_805)">
<path d="M18.354 24.354L12.7 30H17V31H11V25H12V29.285L17.646 23.646L18.354 24.354ZM31 11H25V12H29.3L23.646 17.646L24.353 18.354L30 12.715V17H31V11ZM25 31H31V25H30V29.285L24.354 23.646L23.647 24.354L29.3 30H25V31ZM17 11H11V17H12V12.715L17.646 18.354L18.353 17.646L12.7 12H17V11Z" fill="white"/>
</g>
<defs>
<clipPath id="clip0_708_805">
<rect width="24" height="24" fill="white" transform="translate(9 9)"/>
</clipPath>
</defs>
</svg>
